%TF.GenerationSoftware,KiCad,Pcbnew,9.0.1*%
%TF.CreationDate,2025-05-12T19:59:27-03:00*%
%TF.ProjectId,proyecto_desarrollo,70726f79-6563-4746-9f5f-646573617272,rev?*%
%TF.SameCoordinates,Original*%
%TF.FileFunction,Paste,Top*%
%TF.FilePolarity,Positive*%
%FSLAX46Y46*%
G04 Gerber Fmt 4.6, Leading zero omitted, Abs format (unit mm)*
G04 Created by KiCad (PCBNEW 9.0.1) date 2025-05-12 19:59:27*
%MOMM*%
%LPD*%
G01*
G04 APERTURE LIST*
G04 Aperture macros list*
%AMRoundRect*
0 Rectangle with rounded corners*
0 $1 Rounding radius*
0 $2 $3 $4 $5 $6 $7 $8 $9 X,Y pos of 4 corners*
0 Add a 4 corners polygon primitive as box body*
4,1,4,$2,$3,$4,$5,$6,$7,$8,$9,$2,$3,0*
0 Add four circle primitives for the rounded corners*
1,1,$1+$1,$2,$3*
1,1,$1+$1,$4,$5*
1,1,$1+$1,$6,$7*
1,1,$1+$1,$8,$9*
0 Add four rect primitives between the rounded corners*
20,1,$1+$1,$2,$3,$4,$5,0*
20,1,$1+$1,$4,$5,$6,$7,0*
20,1,$1+$1,$6,$7,$8,$9,0*
20,1,$1+$1,$8,$9,$2,$3,0*%
G04 Aperture macros list end*
%ADD10RoundRect,0.225000X-0.250000X0.225000X-0.250000X-0.225000X0.250000X-0.225000X0.250000X0.225000X0*%
%ADD11RoundRect,0.225000X0.225000X0.250000X-0.225000X0.250000X-0.225000X-0.250000X0.225000X-0.250000X0*%
%ADD12RoundRect,0.150000X0.825000X0.150000X-0.825000X0.150000X-0.825000X-0.150000X0.825000X-0.150000X0*%
%ADD13RoundRect,0.200000X0.200000X0.275000X-0.200000X0.275000X-0.200000X-0.275000X0.200000X-0.275000X0*%
%ADD14RoundRect,0.150000X-0.150000X0.587500X-0.150000X-0.587500X0.150000X-0.587500X0.150000X0.587500X0*%
%ADD15RoundRect,0.200000X-0.275000X0.200000X-0.275000X-0.200000X0.275000X-0.200000X0.275000X0.200000X0*%
%ADD16RoundRect,0.200000X0.275000X-0.200000X0.275000X0.200000X-0.275000X0.200000X-0.275000X-0.200000X0*%
%ADD17RoundRect,0.200000X-0.200000X-0.275000X0.200000X-0.275000X0.200000X0.275000X-0.200000X0.275000X0*%
%ADD18RoundRect,0.225000X-0.225000X-0.250000X0.225000X-0.250000X0.225000X0.250000X-0.225000X0.250000X0*%
%ADD19RoundRect,0.150000X0.725000X0.150000X-0.725000X0.150000X-0.725000X-0.150000X0.725000X-0.150000X0*%
%ADD20RoundRect,0.225000X0.250000X-0.225000X0.250000X0.225000X-0.250000X0.225000X-0.250000X-0.225000X0*%
%ADD21RoundRect,0.150000X-0.725000X-0.150000X0.725000X-0.150000X0.725000X0.150000X-0.725000X0.150000X0*%
%ADD22R,1.750000X0.450000*%
%ADD23R,2.500000X0.500000*%
%ADD24R,2.500000X2.000000*%
%ADD25RoundRect,0.150000X-0.825000X-0.150000X0.825000X-0.150000X0.825000X0.150000X-0.825000X0.150000X0*%
G04 APERTURE END LIST*
D10*
%TO.C,C11*%
X169675000Y-101550000D03*
X169675000Y-103100000D03*
%TD*%
D11*
%TO.C,C9*%
X173675000Y-82250000D03*
X172125000Y-82250000D03*
%TD*%
D12*
%TO.C,U1*%
X158610000Y-87405000D03*
X158610000Y-86135000D03*
X158610000Y-84865000D03*
X158610000Y-83595000D03*
X153660000Y-83595000D03*
X153660000Y-84865000D03*
X153660000Y-86135000D03*
X153660000Y-87405000D03*
%TD*%
D13*
%TO.C,R9*%
X151525000Y-74900000D03*
X149875000Y-74900000D03*
%TD*%
D14*
%TO.C,Q1*%
X165525000Y-96687500D03*
X163625000Y-96687500D03*
X164575000Y-98562500D03*
%TD*%
D13*
%TO.C,R5*%
X179325000Y-95700000D03*
X177675000Y-95700000D03*
%TD*%
D15*
%TO.C,R19*%
X168200000Y-83975000D03*
X168200000Y-85625000D03*
%TD*%
D13*
%TO.C,R18*%
X173075000Y-85000000D03*
X171425000Y-85000000D03*
%TD*%
D16*
%TO.C,R1*%
X146700000Y-87525000D03*
X146700000Y-85875000D03*
%TD*%
D17*
%TO.C,R13*%
X160725000Y-73325000D03*
X162375000Y-73325000D03*
%TD*%
D18*
%TO.C,C1*%
X153675000Y-82000000D03*
X155225000Y-82000000D03*
%TD*%
%TO.C,C3*%
X155325000Y-89300000D03*
X156875000Y-89300000D03*
%TD*%
D12*
%TO.C,U2*%
X184507499Y-90600000D03*
X184507499Y-89330000D03*
X184507499Y-88060000D03*
X184507499Y-86790000D03*
X179557499Y-86790000D03*
X179557499Y-88060000D03*
X179557499Y-89330000D03*
X179557499Y-90600000D03*
%TD*%
D11*
%TO.C,C5*%
X178982499Y-84700000D03*
X177432499Y-84700000D03*
%TD*%
D19*
%TO.C,U4*%
X183075000Y-82445000D03*
X183075000Y-81175000D03*
X183075000Y-79905000D03*
X183075000Y-78635000D03*
X183075000Y-77365000D03*
X183075000Y-76095000D03*
X183075000Y-74825000D03*
X183075000Y-73555000D03*
X177925000Y-73555000D03*
X177925000Y-74825000D03*
X177925000Y-76095000D03*
X177925000Y-77365000D03*
X177925000Y-78635000D03*
X177925000Y-79905000D03*
X177925000Y-81175000D03*
X177925000Y-82445000D03*
%TD*%
D17*
%TO.C,R6*%
X161175000Y-79200000D03*
X162825000Y-79200000D03*
%TD*%
D20*
%TO.C,C10*%
X184700000Y-99950000D03*
X184700000Y-98400000D03*
%TD*%
D17*
%TO.C,R15*%
X160725000Y-71800000D03*
X162375000Y-71800000D03*
%TD*%
D21*
%TO.C,U3*%
X153500000Y-69555000D03*
X153500000Y-70825000D03*
X153500000Y-72095000D03*
X153500000Y-73365000D03*
X153500000Y-74635000D03*
X153500000Y-75905000D03*
X153500000Y-77175000D03*
X153500000Y-78445000D03*
X158650000Y-78445000D03*
X158650000Y-77175000D03*
X158650000Y-75905000D03*
X158650000Y-74635000D03*
X158650000Y-73365000D03*
X158650000Y-72095000D03*
X158650000Y-70825000D03*
X158650000Y-69555000D03*
%TD*%
D13*
%TO.C,R17*%
X151525000Y-68900000D03*
X149875000Y-68900000D03*
%TD*%
D22*
%TO.C,U6*%
X172750000Y-99350000D03*
X172750000Y-100000000D03*
X172750000Y-100650000D03*
X172750000Y-101300000D03*
X172750000Y-101950000D03*
X172750000Y-102600000D03*
X172750000Y-103250000D03*
X172750000Y-103900000D03*
X172750000Y-104550000D03*
X172750000Y-105200000D03*
X172750000Y-105850000D03*
X172750000Y-106500000D03*
X172750000Y-107150000D03*
X172750000Y-107800000D03*
X179950000Y-107800000D03*
X179950000Y-107150000D03*
X179950000Y-106500000D03*
X179950000Y-105850000D03*
X179950000Y-105200000D03*
X179950000Y-104550000D03*
X179950000Y-103900000D03*
X179950000Y-103250000D03*
X179950000Y-102600000D03*
X179950000Y-101950000D03*
X179950000Y-101300000D03*
X179950000Y-100650000D03*
X179950000Y-100000000D03*
X179950000Y-99350000D03*
%TD*%
D13*
%TO.C,R10*%
X151525000Y-71900000D03*
X149875000Y-71900000D03*
%TD*%
D20*
%TO.C,C2*%
X149000000Y-85875000D03*
X149000000Y-84325000D03*
%TD*%
D18*
%TO.C,C4*%
X181225000Y-92650000D03*
X182775000Y-92650000D03*
%TD*%
D20*
%TO.C,C8*%
X185600000Y-80925000D03*
X185600000Y-79375000D03*
%TD*%
D17*
%TO.C,R16*%
X160725000Y-70300000D03*
X162375000Y-70300000D03*
%TD*%
D20*
%TO.C,C7*%
X151600000Y-81575000D03*
X151600000Y-80025000D03*
%TD*%
D13*
%TO.C,R2*%
X165025000Y-77300000D03*
X163375000Y-77300000D03*
%TD*%
D23*
%TO.C,J1*%
X190375000Y-101600000D03*
X190375000Y-100800000D03*
X190375000Y-100000000D03*
X190375000Y-99200000D03*
X190375000Y-98400000D03*
D24*
X190375000Y-104400000D03*
X195875000Y-104400000D03*
X190375000Y-95600000D03*
X195875000Y-95600000D03*
%TD*%
D10*
%TO.C,C6*%
X188200000Y-88200000D03*
X188200000Y-89750000D03*
%TD*%
D13*
%TO.C,R7*%
X151525000Y-77900000D03*
X149875000Y-77900000D03*
%TD*%
%TO.C,R12*%
X151525000Y-73400000D03*
X149875000Y-73400000D03*
%TD*%
D25*
%TO.C,U5*%
X168025000Y-76595000D03*
X168025000Y-77865000D03*
X168025000Y-79135000D03*
X168025000Y-80405000D03*
X172975000Y-80405000D03*
X172975000Y-79135000D03*
X172975000Y-77865000D03*
X172975000Y-76595000D03*
%TD*%
D13*
%TO.C,R8*%
X151525000Y-76400000D03*
X149875000Y-76400000D03*
%TD*%
%TO.C,R11*%
X151525000Y-70400000D03*
X149875000Y-70400000D03*
%TD*%
D15*
%TO.C,R3*%
X165500000Y-84000000D03*
X165500000Y-85650000D03*
%TD*%
D17*
%TO.C,R4*%
X175300000Y-88075000D03*
X176950000Y-88075000D03*
%TD*%
%TO.C,R14*%
X160700000Y-74825000D03*
X162350000Y-74825000D03*
%TD*%
M02*
