%TF.GenerationSoftware,KiCad,Pcbnew,9.0.1*%
%TF.CreationDate,2025-05-12T19:59:27-03:00*%
%TF.ProjectId,proyecto_desarrollo,70726f79-6563-4746-9f5f-646573617272,rev?*%
%TF.SameCoordinates,Original*%
%TF.FileFunction,Copper,L4,Bot*%
%TF.FilePolarity,Positive*%
%FSLAX46Y46*%
G04 Gerber Fmt 4.6, Leading zero omitted, Abs format (unit mm)*
G04 Created by KiCad (PCBNEW 9.0.1) date 2025-05-12 19:59:27*
%MOMM*%
%LPD*%
G01*
G04 APERTURE LIST*
%TA.AperFunction,ComponentPad*%
%ADD10C,1.498600*%
%TD*%
%TA.AperFunction,ComponentPad*%
%ADD11C,2.000000*%
%TD*%
%TA.AperFunction,ComponentPad*%
%ADD12R,1.700000X1.700000*%
%TD*%
%TA.AperFunction,ComponentPad*%
%ADD13C,1.700000*%
%TD*%
%TA.AperFunction,ComponentPad*%
%ADD14R,1.600000X1.600000*%
%TD*%
%TA.AperFunction,ComponentPad*%
%ADD15C,1.600000*%
%TD*%
%TA.AperFunction,ViaPad*%
%ADD16C,0.600000*%
%TD*%
%TA.AperFunction,Conductor*%
%ADD17C,0.500000*%
%TD*%
%TA.AperFunction,Conductor*%
%ADD18C,0.400000*%
%TD*%
%TA.AperFunction,Conductor*%
%ADD19C,0.200000*%
%TD*%
G04 APERTURE END LIST*
D10*
%TO.P,RV2,1,1*%
%TO.N,+5V*%
X166400000Y-104400000D03*
%TO.P,RV2,2,2*%
X163900000Y-109400000D03*
%TO.P,RV2,3,3*%
%TO.N,Net-(U2-DIS)*%
X161400010Y-104400000D03*
%TD*%
D11*
%TO.P,SW3,1,A*%
%TO.N,/reset*%
X146750000Y-54750000D03*
X153250000Y-54750000D03*
%TO.P,SW3,2,B*%
%TO.N,GND*%
X146750000Y-59250000D03*
X153250000Y-59250000D03*
%TD*%
D12*
%TO.P,J2,1,Pin_1*%
%TO.N,Net-(J2-Pin_1)*%
X175900000Y-138800000D03*
D13*
%TO.P,J2,2,Pin_2*%
%TO.N,Net-(J2-Pin_2)*%
X173360000Y-138800000D03*
%TD*%
D10*
%TO.P,RV1,1,1*%
%TO.N,+5V*%
X144400000Y-94800000D03*
%TO.P,RV1,2,2*%
X139400000Y-92300000D03*
%TO.P,RV1,3,3*%
%TO.N,Net-(U1-DIS)*%
X144400000Y-89800010D03*
%TD*%
D11*
%TO.P,SW1,1,A*%
%TO.N,+5V*%
X191173558Y-119510418D03*
X187923558Y-125139583D03*
%TO.P,SW1,2,B*%
%TO.N,Net-(SW1-B)*%
X187276444Y-117260418D03*
X184026444Y-122889583D03*
%TD*%
%TO.P,SW2,1,A*%
%TO.N,+5V*%
X112076443Y-125139583D03*
X108826443Y-119510418D03*
%TO.P,SW2,2,B*%
%TO.N,Net-(SW1-B)*%
X115973557Y-122889583D03*
X112723557Y-117260418D03*
%TD*%
D14*
%TO.P,BZ1,1,+*%
%TO.N,+5V*%
X150000000Y-98000000D03*
D15*
%TO.P,BZ1,2,-*%
%TO.N,Net-(BZ1--)*%
X150000000Y-102000000D03*
%TD*%
D16*
%TO.N,/reset*%
X165550000Y-66600000D03*
%TO.N,+5V*%
X156850000Y-69550000D03*
X181125000Y-94000000D03*
X174800000Y-82250000D03*
X171150000Y-98550000D03*
X154200000Y-89300000D03*
X185600000Y-82200000D03*
X177900000Y-83400000D03*
X151600000Y-83200000D03*
X188425000Y-101600000D03*
X167325000Y-74850000D03*
X181625000Y-103775000D03*
X183050000Y-100750000D03*
X174750735Y-78200735D03*
%TO.N,GND*%
X165100000Y-101600000D03*
X127000000Y-101600000D03*
X177800000Y-63500000D03*
X149000000Y-83325000D03*
X127000000Y-88900000D03*
X186700000Y-100100000D03*
X165100000Y-63500000D03*
X139700000Y-63500000D03*
X163625000Y-95400000D03*
X139700000Y-76200000D03*
X169675000Y-104175000D03*
X177800000Y-114300000D03*
X165100000Y-114300000D03*
X177800000Y-127000000D03*
X186700000Y-98400000D03*
X101600000Y-101600000D03*
X165100000Y-139700000D03*
X127000000Y-127000000D03*
X184200000Y-92300000D03*
X139700000Y-101600000D03*
X152400000Y-88900000D03*
X190500000Y-127000000D03*
X114300000Y-114300000D03*
X114300000Y-127000000D03*
X178821489Y-100655968D03*
X114300000Y-101600000D03*
X178400000Y-103900000D03*
X139700000Y-114300000D03*
X158000000Y-89300000D03*
X139700000Y-139700000D03*
X152400000Y-127000000D03*
X114300000Y-76200000D03*
X127000000Y-63500000D03*
X152400000Y-114300000D03*
X127000000Y-76200000D03*
X127000000Y-114300000D03*
X153144669Y-79594669D03*
X168450000Y-81850000D03*
X139700000Y-127000000D03*
X152400000Y-139700000D03*
X185000000Y-74000000D03*
X114300000Y-88900000D03*
X171000000Y-82250000D03*
X127000000Y-139700000D03*
X165500000Y-86550000D03*
X165100000Y-88900000D03*
X156250000Y-82000000D03*
X178375000Y-105850000D03*
X188200000Y-90625000D03*
X176425000Y-84725000D03*
X152400000Y-63500000D03*
X165100000Y-127000000D03*
%TO.N,Net-(U5-+)*%
X163512500Y-75762500D03*
X164250000Y-79250000D03*
%TO.N,Net-(U2-DIS)*%
X168125000Y-92200000D03*
%TO.N,Net-(U2-Q)*%
X179300000Y-94300000D03*
X182700000Y-88100000D03*
%TO.N,Net-(SW1-B)*%
X154750000Y-112525000D03*
X154750000Y-110525000D03*
X160800000Y-86000000D03*
%TO.N,/alarm*%
X186600000Y-86000000D03*
X186600000Y-90900000D03*
%TO.N,Net-(J2-Pin_2)*%
X173350000Y-136500000D03*
%TO.N,Net-(J2-Pin_1)*%
X175900000Y-135650000D03*
%TD*%
D17*
%TO.N,+5V*%
X185600000Y-82200000D02*
X185600000Y-83100000D01*
X151600000Y-82200000D02*
X158950000Y-74850000D01*
D18*
X166100000Y-111500000D02*
X183500000Y-111500000D01*
X145000000Y-111500000D02*
X166100000Y-111500000D01*
D17*
X171225000Y-98475000D02*
X180150000Y-98475000D01*
D18*
X140500000Y-105400000D02*
X134400000Y-111500000D01*
X141900000Y-94800000D02*
X139400000Y-92300000D01*
X108826443Y-119510418D02*
X112076443Y-122760418D01*
D17*
X180150000Y-98475000D02*
X182000000Y-96625000D01*
X185100000Y-83600000D02*
X184525000Y-83600000D01*
X187923558Y-122760418D02*
X187923558Y-125139583D01*
D18*
X163900000Y-106900000D02*
X166400000Y-104400000D01*
X144400000Y-94800000D02*
X141900000Y-94800000D01*
X138500000Y-111500000D02*
X145000000Y-111500000D01*
D17*
X186100000Y-83600000D02*
X185100000Y-83600000D01*
X151600000Y-83200000D02*
X151600000Y-82200000D01*
D18*
X163900000Y-109400000D02*
X166000000Y-111500000D01*
D17*
X188350000Y-101525000D02*
X188350000Y-97487925D01*
D18*
X185000000Y-102950000D02*
X186350000Y-101600000D01*
X140900000Y-105000000D02*
X140500000Y-105400000D01*
X147900000Y-98000000D02*
X140900000Y-105000000D01*
D17*
X181125000Y-94000000D02*
X181125000Y-95750000D01*
D18*
X112076443Y-122760418D02*
X112076443Y-125139583D01*
X134400000Y-111500000D02*
X133600000Y-111500000D01*
D17*
X151600000Y-86700000D02*
X154200000Y-89300000D01*
D18*
X108826443Y-116473557D02*
X113800000Y-111500000D01*
X185000000Y-110000000D02*
X185000000Y-102950000D01*
D17*
X187462075Y-96600000D02*
X187350000Y-96600000D01*
D18*
X186350000Y-101600000D02*
X182200000Y-101600000D01*
D17*
X171150000Y-98550000D02*
X171225000Y-98475000D01*
D18*
X144050800Y-94800000D02*
X144400000Y-94800000D01*
D17*
X188350000Y-97487925D02*
X187462075Y-96600000D01*
X188425000Y-101600000D02*
X188425000Y-101750000D01*
D18*
X134350400Y-111500000D02*
X145000000Y-111500000D01*
D17*
X187462075Y-96600000D02*
X187449000Y-96586925D01*
X188425000Y-101600000D02*
X188350000Y-101525000D01*
X187325000Y-96625000D02*
X187350000Y-96600000D01*
X184525000Y-83600000D02*
X178100000Y-83600000D01*
D18*
X140750400Y-98449600D02*
X144400000Y-94800000D01*
X140750400Y-105149600D02*
X140500000Y-105400000D01*
X113800000Y-111500000D02*
X133600000Y-111500000D01*
D17*
X151600000Y-83200000D02*
X151600000Y-86700000D01*
X182000000Y-96625000D02*
X187325000Y-96625000D01*
X188350000Y-101825000D02*
X188350000Y-111775000D01*
X185600000Y-83100000D02*
X185100000Y-83600000D01*
X167325000Y-74850000D02*
X158950000Y-74850000D01*
X174800000Y-82250000D02*
X174725000Y-82250000D01*
X191173558Y-119510418D02*
X187923558Y-122760418D01*
D18*
X133600000Y-111500000D02*
X138500000Y-111500000D01*
D17*
X174800000Y-78250000D02*
X174750735Y-78200735D01*
D18*
X140750400Y-104850400D02*
X140750400Y-98449600D01*
X140750400Y-104850400D02*
X140750400Y-105149600D01*
X147900000Y-98000000D02*
X150000000Y-98000000D01*
D17*
X187449000Y-96586925D02*
X187449000Y-84949000D01*
D18*
X166000000Y-111500000D02*
X166100000Y-111500000D01*
X108826443Y-119510418D02*
X108826443Y-116473557D01*
D17*
X188350000Y-111775000D02*
X191173558Y-114598558D01*
X174800000Y-82250000D02*
X174800000Y-78250000D01*
D18*
X183500000Y-111500000D02*
X185000000Y-110000000D01*
D17*
X158950000Y-74850000D02*
X158950000Y-71650000D01*
X174725000Y-82250000D02*
X167325000Y-74850000D01*
X175950000Y-83400000D02*
X174800000Y-82250000D01*
D18*
X140900000Y-105000000D02*
X140750400Y-104850400D01*
D17*
X178100000Y-83600000D02*
X177900000Y-83400000D01*
X188425000Y-101600000D02*
X182200000Y-101600000D01*
D18*
X163900000Y-109400000D02*
X163900000Y-106900000D01*
D17*
X182200000Y-101600000D02*
X181625000Y-102175000D01*
X183050000Y-100750000D02*
X182200000Y-101600000D01*
X181625000Y-102175000D02*
X181625000Y-103775000D01*
X177900000Y-83400000D02*
X175950000Y-83400000D01*
X158950000Y-71650000D02*
X156850000Y-69550000D01*
X188425000Y-101750000D02*
X188350000Y-101825000D01*
X187449000Y-84949000D02*
X186100000Y-83600000D01*
X181125000Y-95750000D02*
X182000000Y-96625000D01*
X191173558Y-114598558D02*
X191173558Y-119510418D01*
%TO.N,GND*%
X168450000Y-81850000D02*
X168850000Y-82250000D01*
X168450000Y-81850000D02*
X168400000Y-81850000D01*
X168850000Y-82250000D02*
X171000000Y-82250000D01*
D19*
%TO.N,/reset*%
X146750000Y-54750000D02*
X153250000Y-54750000D01*
%TO.N,Net-(U5-+)*%
X164250000Y-76500000D02*
X164250000Y-79250000D01*
X163512500Y-75762500D02*
X164250000Y-76500000D01*
%TO.N,Net-(U2-DIS)*%
X168125000Y-96075000D02*
X168125000Y-92200000D01*
X161400010Y-102799990D02*
X168125000Y-96075000D01*
X161400010Y-104400000D02*
X161400010Y-102799990D01*
%TO.N,Net-(U2-Q)*%
X182600000Y-88100000D02*
X182700000Y-88100000D01*
X179900000Y-90800000D02*
X182600000Y-88100000D01*
X179300000Y-94300000D02*
X179900000Y-93700000D01*
X179900000Y-93700000D02*
X179900000Y-90800000D01*
%TO.N,Net-(SW1-B)*%
X154750000Y-106975000D02*
X160800000Y-100925000D01*
X184026444Y-122889583D02*
X155264583Y-122889583D01*
X155264583Y-122889583D02*
X154725000Y-122350000D01*
X112723557Y-117260418D02*
X115973557Y-120510418D01*
X160800000Y-100925000D02*
X160800000Y-86000000D01*
X187276444Y-119639583D02*
X187276444Y-117260418D01*
X184026444Y-122889583D02*
X187276444Y-119639583D01*
X154725000Y-112550000D02*
X154725000Y-122300000D01*
X154750000Y-112525000D02*
X154725000Y-112550000D01*
X154725000Y-122300000D02*
X154135417Y-122889583D01*
X154135417Y-122889583D02*
X115973557Y-122889583D01*
X115973557Y-120510418D02*
X115973557Y-122889583D01*
X154750000Y-110525000D02*
X154750000Y-106975000D01*
%TO.N,/alarm*%
X186600000Y-86000000D02*
X186600000Y-90900000D01*
%TO.N,Net-(J2-Pin_2)*%
X173350000Y-136500000D02*
X173350000Y-138790000D01*
X173350000Y-138790000D02*
X173360000Y-138800000D01*
%TO.N,Net-(J2-Pin_1)*%
X175900000Y-135650000D02*
X175900000Y-138800000D01*
%TO.N,/reset*%
X153750000Y-54750000D02*
X165550000Y-66550000D01*
X153250000Y-54750000D02*
X153750000Y-54750000D01*
X165550000Y-66550000D02*
X165550000Y-66600000D01*
%TD*%
M02*
