M48
; DRILL file {KiCad 9.0.1} date 2025-05-12T20:00:46-0300
; FORMAT={-:-/ absolute / metric / decimal}
; #@! TF.CreationDate,2025-05-12T20:00:46-03:00
; #@! TF.GenerationSoftware,Kicad,Pcbnew,9.0.1
; #@! TF.FileFunction,Plated,1,4,PTH
FMAT,2
METRIC
; #@! TA.AperFunction,Plated,PTH,ViaDrill
T1C0.300
; #@! TA.AperFunction,Plated,PTH,ComponentDrill
T2C0.900
; #@! TA.AperFunction,Plated,PTH,ComponentDrill
T3C0.991
; #@! TA.AperFunction,Plated,PTH,ComponentDrill
T4C1.000
; #@! TA.AperFunction,Plated,PTH,ComponentDrill
T5C1.100
%
G90
G05
T1
X101.6Y-101.6
X114.3Y-76.2
X114.3Y-88.9
X114.3Y-101.6
X114.3Y-114.3
X114.3Y-127.0
X127.0Y-63.5
X127.0Y-76.2
X127.0Y-88.9
X127.0Y-101.6
X127.0Y-114.3
X127.0Y-127.0
X127.0Y-139.7
X139.7Y-63.5
X139.7Y-76.2
X139.7Y-101.6
X139.7Y-114.3
X139.7Y-127.0
X139.7Y-139.7
X149.0Y-83.325
X151.6Y-83.2
X152.4Y-63.5
X152.4Y-88.9
X152.4Y-114.3
X152.4Y-127.0
X152.4Y-139.7
X153.145Y-79.595
X154.2Y-89.3
X154.75Y-110.525
X154.75Y-112.525
X156.25Y-82.0
X156.85Y-69.55
X158.0Y-89.3
X160.8Y-86.0
X163.512Y-75.763
X163.625Y-95.4
X164.25Y-79.25
X165.1Y-63.5
X165.1Y-88.9
X165.1Y-101.6
X165.1Y-114.3
X165.1Y-127.0
X165.1Y-139.7
X165.5Y-86.55
X165.55Y-66.6
X167.325Y-74.85
X168.125Y-92.2
X168.45Y-81.85
X169.675Y-104.175
X171.0Y-82.25
X171.15Y-98.55
X173.35Y-136.5
X174.751Y-78.201
X174.8Y-82.25
X175.9Y-135.65
X176.425Y-84.725
X177.8Y-63.5
X177.8Y-114.3
X177.8Y-127.0
X177.9Y-83.4
X178.375Y-105.85
X178.4Y-103.9
X178.821Y-100.656
X179.3Y-94.3
X181.125Y-94.0
X181.625Y-103.775
X182.7Y-88.1
X183.05Y-100.75
X184.2Y-92.3
X185.0Y-74.0
X185.6Y-82.2
X186.6Y-86.0
X186.6Y-90.9
X186.7Y-98.4
X186.7Y-100.1
X188.2Y-90.625
X188.425Y-101.6
X190.5Y-127.0
T2
X150.0Y-98.0
X150.0Y-102.0
T3
X139.4Y-92.3
X144.4Y-89.8
X144.4Y-94.8
X161.4Y-104.4
X163.9Y-109.4
X166.4Y-104.4
T4
X173.36Y-138.8
X175.9Y-138.8
T5
X108.826Y-119.51
X112.076Y-125.14
X112.724Y-117.26
X115.974Y-122.89
X146.75Y-54.75
X146.75Y-59.25
X153.25Y-54.75
X153.25Y-59.25
X184.026Y-122.89
X187.276Y-117.26
X187.924Y-125.14
X191.174Y-119.51
M30
